<svg xmlns="http://www.w3.org/2000/svg" viewBox="0 0 1254 1254">
  <g transform="translate(0.000000,1254.000000) scale(0.100000,-0.100000)" fill="#0A1E3D">
<path d="M6130 10523 c-1064 -359 -1979 -678 -2795 -973 l-350 -127 -3 -1899
c-3 -2087 -6 -1973 58 -2240 86 -362 292 -771 566 -1124 179 -232 538 -567
804 -752 322 -223 1494 -932 1840 -1112 l55 -29 130 73 c781 436 1646 977
1945 1216 165 132 455 420 574 569 271 341 467 718 567 1092 28 105 69 345 69
406 l0 27 -264 0 -263 0 -23 -112 c-91 -460 -326 -877 -709 -1258 -280 -280
-920 -715 -1820 -1240 -107 -62 -200 -113 -206 -113 -29 0 -950 566 -1330 818
-371 247 -525 365 -691 530 -390 388 -636 825 -724 1285 -20 102 -20 147 -20
1785 l0 1681 168 58 c92 32 273 95 402 141 276 98 1001 352 1245 435 94 32
283 97 420 145 138 48 309 107 381 131 l131 45 329 -116 c181 -64 385 -136
454 -160 218 -76 609 -216 1667 -599 238 -86 435 -156 438 -156 3 0 5 132 5
294 0 226 -3 295 -12 299 -47 17 -775 281 -970 351 -68 24 -211 76 -318 114
-630 226 -767 275 -1075 383 -187 66 -377 133 -423 149 -46 17 -91 30 -100 29
-9 0 -78 -21 -152 -46z"/>
</g>
  <g transform="translate(0.000000,1254.000000) scale(0.100000,-0.100000)" fill="#0B5CE1">
<path d="M2975 9418 c-3 -7 -4 -854 -3 -1883 l3 -1870 5 1883 c3 1035 4 1882
2 1882 -1 0 -5 -6 -7 -12z M8683 7938 c-191 -183 -485 -466 -653 -628 -168
-163 -570 -552 -895 -864 -324 -313 -626 -605 -671 -648 l-80 -79 -381 383
c-209 211 -392 397 -406 413 l-26 30 -200 -200 c-111 -110 -201 -204 -201
-209 0 -6 170 -181 378 -391 207 -209 477 -481 599 -605 l222 -225 178 176
c98 96 311 303 473 459 162 157 428 413 590 570 415 401 1030 993 1180 1135
421 398 640 610 638 616 -5 14 -380 399 -388 399 -5 0 -166 -150 -357 -332z
M9183 5653 c32 -2 81 -2 110 0 29 2 3 3 -58 3 -60 0 -84 -1 -52 -3z M9463
5653 c15 -2 37 -2 50 0 12 2 0 4 -28 4 -27 0 -38 -2 -22 -4z M3875 3850 c33
-33 62 -60 64 -60 3 0 -21 27 -54 60 -33 33 -62 60 -64 60 -3 0 21 -27 54 -60z
M8695 3838 l-50 -53 53 50 c48 46 57 55 49 55 -1 0 -25 -24 -52 -52z"/>
</g>
</svg>